<svg xmlns="http://www.w3.org/2000/svg" xmlns:xlink="http://www.w3.org/1999/xlink" fill="none" version="1.1" width="36" height="35.999996185302734" viewBox="0 0 36 35.999996185302734"><g><path d="M15,15L3.0075,15C1.3484,14.9975,0.00165478,16.3409,0,18C0,19.668,1.347,21,3.0075,21L15,21L15,32.9925C15,34.6545,16.3425,36,18,36C19.668,36,21,34.653,21,32.9925L21,21L32.9925,21C34.6516,21.0025,35.9983,19.6591,36,18C36,16.332,34.653,15,32.9925,15L21,15L21,3.0075C21.0025,1.3484,19.6591,0.00165643,18,0C16.332,0,15,1.347,15,3.0075L15,15Z" fill="#FF6666" fill-opacity="1"/></g></svg>