<svg xmlns="http://www.w3.org/2000/svg" xmlns:xlink="http://www.w3.org/1999/xlink" fill="none" version="1.1" width="80" height="80" viewBox="0 0 80 80"><defs><clipPath id="master_svg0_308_01743"><rect x="0" y="0" width="80" height="80" rx="0"/></clipPath></defs><g clip-path="url(#master_svg0_308_01743)"><g><path d="M74.686934375,40.20608046875Q74.686934375,41.07078046875,74.644534375,41.93448046875Q74.602134375,42.79828046875,74.517334375,43.65878046875Q74.432534375,44.51938046875,74.305734375,45.37478046875Q74.178834375,46.23018046875,74.010134375,47.07828046875Q73.841434375,47.92648046875,73.631234375,48.76528046875Q73.421134375,49.60418046875,73.170134375,50.43168046875Q72.919034375,51.25918046875,72.627734375,52.07338046875Q72.336434375,52.88758046875,72.005534375,53.68648046875Q71.674534375,54.48538046875,71.304834375,55.26718046875Q70.935034375,56.04888046875,70.527434375,56.81148046875Q70.119734375,57.57418046875,69.675234375,58.31588046875Q69.230634375,59.05758046875,68.750134375,59.77658046875Q68.269734375,60.49568046875,67.754634375,61.19018046875Q67.239434375,61.88478046875,66.69083437500001,62.55328046875Q66.142234375,63.22168046875,65.56153437500001,63.86248046875Q64.980734375,64.50318046875,64.369334375,65.11468046875001Q63.757834375,65.72618046875,63.117034375,66.30688046875Q62.476334375,66.88758046875,61.807834375,67.43618046875Q61.139334375,67.98478046875,60.444734375,68.49988046875Q59.750134375,69.01508046875,59.031134375,69.49548046875Q58.312134375,69.97588046875,57.570434375,70.42048046875Q56.828634375,70.86508046875,56.066034375,71.27268046875Q55.303334375,71.68028046875,54.521634375,72.05008046875Q53.739834375,72.41978046875,52.940934375,72.75068046875Q52.141934375,73.08168046875,51.327734375,73.37298046875Q50.513534375,73.66428046875,49.686034375,73.91528046875Q48.858534375,74.16638046875,48.019634375,74.37648046875Q47.180734375,74.58658046875,46.332634375,74.75528046875Q45.484434375,74.92398046875,44.629034375,75.05088046875Q43.773634375,75.17778046875,42.913034375,75.26248046875Q42.052434375,75.34728046875,41.188734375,75.38968046875Q40.325034375,75.43218046875,39.460234375,75.43218046875Q38.595434375,75.43218046875,37.731734375,75.38968046875Q36.868034375,75.34728046875,36.007434375,75.26248046875Q35.146834375,75.17778046875,34.291434375,75.05088046875Q33.436034375,74.92398046875,32.587834375,74.75528046875Q31.739734375,74.58658046875,30.900834375,74.37648046875Q30.062034375,74.16638046875,29.234434375,73.91528046875Q28.406934375,73.66428046875,27.592734375,73.37298046875Q26.778534375,73.08168046875,25.979534375,72.75068046875Q25.180634375,72.41978046875,24.398834375,72.05008046875Q23.617134375,71.68038046875,22.854434375,71.27268046875Q22.091834375,70.86508046875,21.350134375,70.42048046875Q20.608334375,69.97588046875,19.889334375,69.49548046875Q19.170334375,69.01508046875,18.475734375000002,68.49988046875Q17.781134375,67.98478046875,17.112634375,67.43618046875Q16.444134375,66.88758046875,15.803434375,66.30688046875Q15.162634375,65.72618046875,14.551234375,65.11468046875001Q13.939704375,64.50318046875,13.358964375,63.86248046875Q12.778224375,63.22168046875,12.229624375,62.55328046875Q11.681014375,61.88478046875,11.165874375,61.19018046875Q10.650734374999999,60.49568046875,10.170294375000001,59.77658046875Q9.689854375,59.05758046875,9.245274375000001,58.31588046875Q8.800694374999999,57.57418046875,8.393054375,56.81148046875Q7.985404375,56.04888046875,7.615664375,55.26718046875Q7.245934375,54.48538046875,6.914994375,53.68648046875Q6.5840643750000005,52.88758046875,6.292734375,52.07338046875Q6.001404375,51.25918046875,5.750374375,50.43168046875Q5.499344375,49.60418046875,5.289224375,48.76528046875Q5.079103375,47.92648046875,4.910395375,47.07828046875Q4.741688375,46.23018046875,4.614800375,45.37478046875Q4.487912375,44.51938046875,4.403150375,43.65878046875Q4.318388575,42.79828046875,4.275956475,41.93448046875Q4.233524325,41.07078046875,4.233524325,40.20608046875Q4.233524325,39.34128046875,4.275956475,38.47758046875Q4.318388575,37.61388046875,4.403150375,36.75328046875Q4.487912375,35.89268046875,4.614800375,35.03728046875Q4.741688375,34.181880468749995,4.910395375,33.33378046875Q5.079103375,32.485680468750004,5.289224375,31.64678046875Q5.499344375,30.80798046875,5.750374375,29.98048046875Q6.001404375,29.15298046875,6.292734375,28.33878046875Q6.5840643750000005,27.52458046875,6.914994375,26.72558046875Q7.245934375,25.92668046875,7.615664375,25.14498046875Q7.985404375,24.36328046875,8.393054375,23.60058046875Q8.800694374999999,22.83798046875,9.245274375000001,22.09628046875Q9.689854375,21.35448046875,10.170294375000001,20.63548046875Q10.650734374999999,19.916480468750002,11.165874375,19.22188046875Q11.681014375,18.52738046875,12.229624375,17.85888046875Q12.778224375,17.19038046875,13.358964375,16.549680468749997Q13.939704375,15.90898046875,14.551234375,15.29748046875Q15.162634375,14.68599046875,15.803434375,14.10526046875Q16.444134375,13.52453046875,17.112634375,12.97593046875Q17.781134375,12.42734046875,18.475734375000002,11.91221046875Q19.170334375,11.39708046875,19.889334375,10.91664046875Q20.608334375,10.43621046875,21.350134375,9.99164046875Q22.091834375,9.54707046875,22.854434375,9.13943046875Q23.617134375,8.731790468749999,24.398834375,8.36206046875Q25.180634375,7.99233046875,25.979534375,7.661410468750001Q26.778534375,7.33048046875,27.592734375,7.03915046875Q28.406934375,6.74783046875,29.234434375,6.49680046875Q30.062034375,6.2457804687500005,30.900834375,6.03566046875Q31.739734375,5.8255444687499995,32.587834375,5.65683946875Q33.436034375,5.48813546875,34.291434375,5.36124946875Q35.146834375,5.23436446875,36.007434375,5.14960346875Q36.868034375,5.06484316875,37.731734375,5.02241186875Q38.595434375,4.97998046875,39.460234375,4.97998046875Q40.325034375,4.97998046875,41.188734375,5.02241186875Q42.052434375,5.06484316875,42.913034375,5.14960346875Q43.773634375,5.23436446875,44.629034375,5.36124946875Q45.484434375,5.48813546875,46.332634375,5.65683946875Q47.180834375,5.8255444687499995,48.019634375,6.03566046875Q48.858534375,6.2457804687500005,49.686034375,6.49680046875Q50.513534375,6.74783046875,51.327734375,7.03915046875Q52.141934375,7.33048046875,52.940934375,7.661410468750001Q53.739834375,7.99233046875,54.521634375,8.36206046875Q55.303334375,8.731790468749999,56.066034375,9.13943046875Q56.828634375,9.54707046875,57.570434375,9.99164046875Q58.312134375,10.43621046875,59.031134375,10.91664046875Q59.750134375,11.39708046875,60.444734375,11.91221046875Q61.139334375,12.42734046875,61.807834375,12.97593046875Q62.476334375,13.52453046875,63.117034375,14.10526046875Q63.757834375,14.68599046875,64.369334375,15.29748046875Q64.980734375,15.90898046875,65.56153437500001,16.549680468749997Q66.142234375,17.19038046875,66.69083437500001,17.85888046875Q67.239434375,18.52738046875,67.754634375,19.22188046875Q68.269734375,19.916480468750002,68.750134375,20.63548046875Q69.230634375,21.35448046875,69.675234375,22.09628046875Q70.119734375,22.83798046875,70.527434375,23.60058046875Q70.935034375,24.36328046875,71.304834375,25.14498046875Q71.674534375,25.92668046875,72.005534375,26.72558046875Q72.336434375,27.52458046875,72.627734375,28.33878046875Q72.919034375,29.15298046875,73.170134375,29.98048046875Q73.421134375,30.80798046875,73.631234375,31.64678046875Q73.841434375,32.485680468750004,74.010134375,33.33378046875Q74.178834375,34.181880468749995,74.305734375,35.03728046875Q74.432534375,35.89268046875,74.517334375,36.75328046875Q74.602134375,37.61388046875,74.644534375,38.47758046875Q74.686934375,39.34128046875,74.686934375,40.20608046875Z" fill="#E9F4FF" fill-opacity="1"/></g><g><path d="M24.5400390625,19.81598309375L24.5400390625,49.18797109375Q35.7840390625,47.91197109375,38.0000390625,51.65997109375Q38.0000390625,45.30397109375,38.1160390625,22.78398109375Q35.676039062499996,19.07597909375,24.5400390625,19.81598309375ZM55.2840390625,19.81598309375L55.2840390625,49.18797109375Q44.0400390625,47.91197109375,41.8240390625,51.65997109375Q41.8240390625,45.30397109375,41.7080390625,22.78398109375Q44.148039062500004,19.07597909375,55.2840390625,19.81598309375Z" fill="#3A9CED" fill-opacity="1"/></g><g><path d="M39.8921953125,61.6120234375C39.3761953125,61.6120234375,38.8641953125,61.4440234375,38.440195312499995,61.1080234375L33.976195312499996,57.5840234375L20.0441953125,57.5840234375C18.748195312500002,57.5840234375,17.7001953125,56.5360234375,17.7001953125,55.2400234375L17.7001953125,24.6320234375L22.3881953125,22.6240234375L22.3881953125,52.8960234375L34.7921953125,52.8960234375C35.320195312500005,52.8960234375,35.832195312500005,53.0720234375,36.2441953125,53.400023437499996L40.0201953125,56.3840234375L44.4121953125,53.504023437499995C44.7931953125,53.252723437499995,45.2397953125,53.1191234375,45.696195312499995,53.120023437499995L57.4001953125,53.120023437499995L57.4001953125,22.9200224375L62.0881953125,24.9280234375L62.0881953125,55.4600234375C62.0881953125,56.7560234375,61.0401953125,57.8040234375,59.7441953125,57.8040234375L46.3961953125,57.8040234375L41.1761953125,61.2280234375C40.7841953125,61.4840234375,40.3401953125,61.6120234375,39.8921953125,61.6120234375Z" fill="#2595E8" fill-opacity="1"/></g><g><path d="M57.4002890625,38.5080234375C58.8040890625,34.6465234375,59.5202890625,30.5688034375,59.5162890625,26.4600234375C59.5162890625,25.5600234375,59.4802890625,24.6680234375,59.4162890625,23.7840234375L57.4002890625,22.9200214375L57.4002890625,38.5080234375ZM45.6962890625,53.116023437500004C45.2402890625,53.116023437500004,44.792289062500004,53.248023437499995,44.4122890625,53.500023437500005L40.0202890625,56.3800234375L36.2442890625,53.3960234375C35.831289062500005,53.068523437500005,35.3193890625,52.8908234375,34.792289062500004,52.8920234375L22.3842890625,52.8920234375L22.3842890625,22.6240234375L17.6962890625,24.6320234375L17.6962890625,55.2400234375C17.6962890625,56.5360234375,18.744289062500002,57.5840234375,20.0402890625,57.5840234375L33.9762890625,57.5840234375L36.4402890625,59.5320234375C40.4212890625,58.0678234375,44.1045890625,55.8955234375,47.3122890625,53.120023437499995L45.6962890625,53.120023437499995L45.6962890625,53.116023437500004Z" fill="#3A9CED" fill-opacity="1"/></g><g><path d="M22.3842890625,48.31997109375L22.3842890625,22.62398109375L17.6962890625,24.63198109375L17.6962890625,49.03997109375C19.2922890625,48.90397109375,20.8602890625,48.65997109375,22.3842890625,48.31997109375ZM24.5402890625,19.81598209375L24.5402890625,47.76397109375C29.537189062499998,46.30437109375,34.1469890625,43.75217109375,38.0362890625,40.29197109375Q38.072289062500005,31.99197109375,38.1202890625,22.78398109375Q35.676289062500004,19.07598309375,24.5402890625,19.81598209375ZM41.7082890625,22.78398109375Q41.7442890625,29.37198109375,41.7722890625,36.42797109375C45.6402890625,31.76797109375,48.328289062500005,26.09198109375,49.3802890625,19.85998209375Q43.2362890625,20.46798209375,41.7082890625,22.78398109375Z" fill="#59ADF8" fill-opacity="1"/></g><g><path d="M22.3842890625,32.5638203125L22.3842890625,22.6238603125L17.6962890625,24.6318603125L17.6962890625,34.6438203125C19.3202890625,34.0638203125,20.8842890625,33.363820312499996,22.3842890625,32.5638203125ZM35.192289062499995,20.895860312499998C33.1562890625,20.1158613125,29.8322890625,19.4638623125,24.5402890625,19.8118622125L24.5402890625,31.3078203125C28.7900890625,28.6331103125,32.4213890625,25.0836603125,35.192289062499995,20.895860312499998Z" fill="#6BC2FC" fill-opacity="1"/></g></g></svg>