<svg xmlns="http://www.w3.org/2000/svg" xmlns:xlink="http://www.w3.org/1999/xlink" fill="none" version="1.1" width="28" height="27.995662689208984" viewBox="0 0 28 27.995662689208984"><g style="mix-blend-mode:passthrough"><path d="M26.6,27.9957C26.6,27.9957,20.3,27.9957,20.3,27.9957C19.9287,27.9957,19.5726,27.8481,19.3101,27.5857C19.0476,27.3232,18.9,26.9671,18.9,26.5959C18.9,26.2247,19.0476,25.8685,19.3101,25.6061C19.5726,25.3436,19.9287,25.1961,20.3,25.1961C20.3,25.1961,25.2,25.1961,25.2,25.1961C25.2,25.1961,25.2,20.2969,25.2,20.2969C25.2,19.9256,25.3476,19.5695,25.6101,19.3071C25.8726,19.0446,26.2287,18.8971,26.6,18.8971C26.9713,18.8971,27.3274,19.0446,27.5899,19.3071C27.8524,19.5695,28,19.9256,28,20.2969C28,20.2969,28,26.5959,28,26.5959C28,26.9671,27.8524,27.3232,27.5899,27.5857C27.3274,27.8481,26.9713,27.9957,26.6,27.9957C26.6,27.9957,26.6,27.9957,26.6,27.9957ZM7.7,27.9957C7.7,27.9957,1.4,27.9957,1.4,27.9957C1.0287,27.9957,0.672602,27.8481,0.41005,27.5857C0.1475,27.3232,2.04004e-16,26.9671,0,26.5959C0,26.5959,0,20.2969,0,20.2969C6.80012e-17,19.9256,0.1475,19.5695,0.41005,19.3071C0.672602,19.0446,1.0287,18.8971,1.4,18.8971C1.77131,18.8971,2.1274,19.0446,2.38995,19.3071C2.6525,19.5695,2.8,19.9256,2.8,20.2969C2.8,20.2969,2.8,25.1961,2.8,25.1961C2.8,25.1961,7.7,25.1961,7.7,25.1961C8.07131,25.1961,8.4274,25.3436,8.68995,25.6061C8.9525,25.8685,9.1,26.2247,9.1,26.5959C9.1,26.9671,8.9525,27.3232,8.68995,27.5857C8.4274,27.8481,8.07131,27.9957,7.7,27.9957C7.7,27.9957,7.7,27.9957,7.7,27.9957ZM26.6,9.09859C26.2287,9.09859,25.8726,8.95111,25.6101,8.68861C25.3476,8.42609,25.2,8.07006,25.2,7.69881C25.2,7.69881,25.2,2.79957,25.2,2.79957C25.2,2.79957,20.3,2.79957,20.3,2.79957C19.9287,2.79957,19.5726,2.65209,19.3101,2.38958C19.0476,2.12707,18.9,1.77103,18.9,1.39978C18.9,1.02854,19.0476,0.672498,19.3101,0.409987C19.5726,0.147477,19.9287,4.27369e-16,20.3,7.77036e-17C20.3,7.77036e-17,26.6,0,26.6,0C26.9713,1.94259e-16,27.3274,0.147477,27.5899,0.409987C27.8524,0.672498,28,1.02854,28,1.39978C28,1.39978,28,7.69881,28,7.69881C28,8.07006,27.8524,8.42609,27.5899,8.68861C27.3274,8.95111,26.9713,9.09859,26.6,9.09859C26.6,9.09859,26.6,9.09859,26.6,9.09859ZM1.4,9.09859C1.0287,9.09859,0.672602,8.95111,0.41005,8.68861C0.1475,8.42609,2.04004e-16,8.07006,0,7.69881C0,7.69881,0,1.39978,0,1.39978C6.80012e-17,1.02854,0.1475,0.672498,0.41005,0.409987C0.672602,0.147477,1.0287,4.27369e-16,1.4,7.77036e-17C1.4,7.77036e-17,7.7,0,7.7,0C8.07131,1.94259e-16,8.4274,0.147477,8.68995,0.409987C8.9525,0.672498,9.1,1.02854,9.1,1.39978C9.1,1.77103,8.9525,2.12707,8.68995,2.38958C8.4274,2.65209,8.07131,2.79957,7.7,2.79957C7.7,2.79957,2.8,2.79957,2.8,2.79957C2.8,2.79957,2.8,7.69881,2.8,7.69881C2.8,8.07006,2.6525,8.42609,2.38995,8.68861C2.1274,8.95111,1.77131,9.09859,1.4,9.09859C1.4,9.09859,1.4,9.09859,1.4,9.09859C1.4,9.09859,1.4,9.09859,1.4,9.09859Z" fill="#FFFFFF" fill-opacity="1"/></g></svg>