<svg xmlns="http://www.w3.org/2000/svg" xmlns:xlink="http://www.w3.org/1999/xlink" fill="none" version="1.1" width="35.79545211791992" height="39.30479431152344" viewBox="0 0 35.79545211791992 39.30479431152344"><g style="mix-blend-mode:passthrough"><path d="M32.0482,39.3048C32.0482,39.3048,3.74727,39.3048,3.74727,39.3048C2.75377,39.3038,1.80126,38.9274,1.09875,38.2581C0.396231,37.589,0.0010834,36.6816,5.59672e-7,35.7352C5.59672e-7,35.7352,5.59672e-7,19.68,5.59672e-7,19.68C-0.000542328,18.7325,0.393889,17.8237,1.09658,17.1532C1.79927,16.4828,2.75271,16.1056,3.74727,16.1045C3.74727,16.1045,6.55773,16.1045,6.55773,16.1045C6.55773,16.1045,6.55773,10.7171,6.55773,10.7171C6.55685,8.15962,7.52171,5.68719,9.27614,3.75134C11.03,1.81693,13.4457,0.535912,16.0957,0.135004C17.2903,-0.0450013,18.5072,-0.0450013,19.7018,0.135004C22.3515,0.53556,24.7672,1.81583,26.5214,3.74939C28.2764,5.68567,29.2414,8.15892,29.2398,10.7171C29.2398,10.7171,29.2398,16.1045,29.2398,16.1045C29.2398,16.1045,32.0482,16.1045,32.0482,16.1045C33.0427,16.1056,33.9963,16.4828,34.6989,17.1532C35.4015,17.8237,35.7961,18.7325,35.7955,19.68C35.7955,19.68,35.7955,35.7352,35.7955,35.7352C35.7944,36.6816,35.3992,37.589,34.6966,38.2581C33.9942,38.9274,33.0417,39.3038,32.0482,39.3048C32.0482,39.3048,32.0482,39.3048,32.0482,39.3048C32.0482,39.3048,32.0482,39.3048,32.0482,39.3048ZM17.8977,23.2028C17.4562,23.224,17.037,23.3941,16.7149,23.6825C16.3927,23.9707,16.1885,24.3586,16.1386,24.7771C16.1386,24.7771,16.1264,24.9856,16.1264,24.9856C16.1264,24.9856,16.1264,30.34,16.1264,30.34C16.1262,30.7967,16.3101,31.2361,16.6401,31.5675C16.9701,31.8987,17.4209,32.0969,17.8998,32.1208C18.3789,32.0973,18.8304,31.8995,19.1608,31.5681C19.4912,31.2366,19.6753,30.7971,19.6752,30.34C19.6752,30.34,19.6752,24.9856,19.6752,24.9856C19.6752,24.9856,19.663,24.7771,19.663,24.7771C19.6121,24.358,19.4068,23.9697,19.0835,23.6815C18.7603,23.3931,18.34,23.2234,17.8977,23.2028C17.8977,23.2028,17.8977,23.2028,17.8977,23.2028C17.8977,23.2028,17.8977,23.2028,17.8977,23.2028ZM17.8977,3.57013C17.6195,3.57013,17.368,3.58377,17.1286,3.60715C17.1286,3.60715,16.9936,3.62079,16.9936,3.62079C15.4183,3.79134,13.9396,4.43073,12.7678,5.44797C11.596,6.46522,10.7907,7.80856,10.4666,9.2869C10.4543,9.34535,10.438,9.39991,10.4216,9.45251C10.3659,9.74817,10.3297,10.0469,10.3132,10.3469C10.3132,10.3469,10.3132,10.7112,10.3132,10.7112C10.3132,10.7112,10.3132,16.1045,10.3132,16.1045C10.3132,16.1045,25.5007,16.1045,25.5007,16.1045C25.5007,16.1045,25.5007,10.7171,25.5007,10.7171C25.5007,10.7171,25.5007,10.3527,25.5007,10.3527C25.4849,10.0528,25.4493,9.75406,25.3943,9.45836C25.3755,9.40415,25.3604,9.34884,25.3493,9.29274C25.0249,7.81086,24.2174,6.4645,23.042,5.44589C21.8665,4.42728,20.3832,3.78852,18.8039,3.62079C18.8039,3.62079,18.6811,3.6091,18.6811,3.6091C18.6811,3.6091,18.6668,3.6091,18.6668,3.6091C18.4275,3.58377,18.1759,3.57013,17.8977,3.57013C17.8977,3.57013,17.8977,3.57013,17.8977,3.57013C17.8977,3.57013,17.8977,3.57013,17.8977,3.57013Z" fill="#FFFFFF" fill-opacity="1"/></g></svg>