<svg xmlns="http://www.w3.org/2000/svg" xmlns:xlink="http://www.w3.org/1999/xlink" fill="none" version="1.1" width="20.454544067382812" height="28.62460708618164" viewBox="0 0 20.454544067382812 28.62460708618164"><g style="mix-blend-mode:passthrough"><path d="M18.4091,28.6246C17.8666,28.6246,17.3463,28.4091,16.9627,28.0257C16.5791,27.6424,16.3636,27.1222,16.3636,26.58C16.3636,26.58,16.3636,2.04461,16.3636,2.04461C16.3636,1.50235,16.5791,0.982294,16.9627,0.598853C17.3463,0.215414,17.8666,5.10745e-16,18.4091,0C18.9516,3.54683e-16,19.4718,0.215414,19.8555,0.598853C20.239,0.982294,20.4545,1.50235,20.4545,2.04461C20.4545,2.04461,20.4545,26.58,20.4545,26.58C20.4545,27.1222,20.239,27.6424,19.8555,28.0257C19.4718,28.4091,18.9516,28.6246,18.4091,28.6246C18.4091,28.6246,18.4091,28.6246,18.4091,28.6246ZM2.04545,28.6246C1.50297,28.6246,0.982698,28.4091,0.599099,28.0257C0.215503,27.6424,2.98057e-16,27.1222,0,26.58C0,26.58,0,2.04461,0,2.04461C9.93524e-17,1.50235,0.215503,0.982294,0.599099,0.598853C0.982698,0.215414,1.50297,5.10745e-16,2.04545,0C2.58795,3.54683e-16,3.10821,0.215414,3.49182,0.598853C3.8754,0.982294,4.09091,1.50235,4.09091,2.04461C4.09091,2.04461,4.09091,26.58,4.09091,26.58C4.09091,27.1222,3.8754,27.6424,3.49182,28.0257C3.10821,28.4091,2.58795,28.6246,2.04545,28.6246C2.04545,28.6246,2.04545,28.6246,2.04545,28.6246C2.04545,28.6246,2.04545,28.6246,2.04545,28.6246Z" fill="#FFFFFF" fill-opacity="1"/></g></svg>