<svg xmlns="http://www.w3.org/2000/svg" xmlns:xlink="http://www.w3.org/1999/xlink" fill="none" version="1.1" width="25.999797821044922" height="28.7998046875" viewBox="0 0 25.999797821044922 28.7998046875"><g style="mix-blend-mode:passthrough" transform="matrix(0,1,-1,0,25.999797821044922,-25.999797821044922)"><path d="M36.935697821044926,1.99982C37.28679782104492,1.39179,37.79169782104492,0.886888,38.39979782104492,0.535848C39.00779782104492,0.184807,39.69759782104492,3.01115e-30,40.399697821044924,3.01115e-30C41.101797821044926,-8.88178e-16,41.791597821044924,0.184807,42.39959782104492,0.535848C43.00769782104492,0.886888,43.51259782104492,1.39179,43.86369782104492,1.99982C43.86369782104492,1.99982,54.263597821044925,19.9998,54.263597821044925,19.9998C54.61479782104492,20.6078,54.79959782104493,21.2976,54.79959782104493,21.9998C54.79959782104493,22.702,54.61479782104492,23.3918,54.26379782104492,23.9998C53.912597821044926,24.6078,53.40779782104492,25.1128,52.79959782104493,25.4638C52.19159782104492,25.815,51.50179782104492,25.9998,50.79959782104493,25.9998C50.79959782104493,25.9998,29.999697821044922,25.9998,29.999697821044922,25.9998C29.297557821044922,25.9998,28.607797821044922,25.815,27.99972782104492,25.4638C27.391667821044923,25.1128,26.886731821044922,24.6078,26.535669821044923,23.9998C26.184609821044923,23.3918,25.999793361724922,22.702,25.99979782112562,21.9998C25.99980228052492,21.2976,26.184627821044923,20.6078,26.53569582104492,19.9998C26.53569582104492,19.9998,36.935697821044926,1.99982,36.935697821044926,1.99982C36.935697821044926,1.99982,36.935697821044926,1.99982,36.935697821044926,1.99982Z" fill="#FFFFFF" fill-opacity="1"/></g></svg>