<svg xmlns="http://www.w3.org/2000/svg" xmlns:xlink="http://www.w3.org/1999/xlink" fill="none" version="1.1" width="32" height="33" viewBox="0 0 32 33"><g style="mix-blend-mode:passthrough"><g style="mix-blend-mode:passthrough"><path d="M16,33C24.8366,33,32,25.6127,32,16.5C32,7.3873,24.8366,0,16,0C7.16344,0,0,7.3873,0,16.5C0,25.6127,7.16344,33,16,33C16,33,16,33,16,33Z" fill="#FF6905" fill-opacity="1"/></g><g style="mix-blend-mode:passthrough"><path d="M8.967774600372314,14.638414277954102C8.461234600372315,14.087234277954103,7.617320600372315,14.063854277954102,7.082834600372315,14.586244277954101C6.5483496003723145,15.1086042779541,6.5256906003723145,15.978874277954102,7.032226600372314,16.530084277954103C7.032226600372314,16.530084277954103,8.967774600372314,14.638414277954102,8.967774600372314,14.638414277954102C8.967774600372314,14.638414277954102,8.967774600372314,14.638414277954102,8.967774600372314,14.638414277954102ZM13.895994600372315,21.9999942779541C13.895994600372315,21.9999942779541,12.928214600372314,22.9457942779541,12.928214600372314,22.9457942779541C13.180054600372316,23.2197942779541,13.530054600372313,23.3750942779541,13.896164600372314,23.3749942779541C14.262264600372315,23.374894277954102,14.612244600372314,23.2196942779541,14.864004600372315,22.9455942779541C14.864004600372315,22.9455942779541,13.895994600372315,21.9999942779541,13.895994600372315,21.9999942779541C13.895994600372315,21.9999942779541,13.895994600372315,21.9999942779541,13.895994600372315,21.9999942779541ZM24.967964600372316,11.9455842779541C25.474364600372315,11.394274277954102,25.451564600372315,10.523987277954102,24.916964600372314,10.001753277954101C24.382364600372313,9.479520277954101,23.538464600372315,9.503096277954102,23.031964600372316,10.054410277954101C23.031964600372316,10.054410277954101,24.967964600372316,11.9455842779541,24.967964600372316,11.9455842779541C24.967964600372316,11.9455842779541,24.967964600372316,11.9455842779541,24.967964600372316,11.9455842779541ZM7.032226600372314,16.530084277954103C7.032226600372314,16.530084277954103,12.928214600372314,22.9457942779541,12.928214600372314,22.9457942779541C12.928214600372314,22.9457942779541,14.863784600372314,21.054194277954103,14.863784600372314,21.054194277954103C14.863784600372314,21.054194277954103,8.967774600372314,14.638414277954102,8.967774600372314,14.638414277954102C8.967774600372314,14.638414277954102,7.032226600372314,16.530084277954103,7.032226600372314,16.530084277954103C7.032226600372314,16.530084277954103,7.032226600372314,16.530084277954103,7.032226600372314,16.530084277954103ZM14.864004600372315,22.9455942779541C14.864004600372315,22.9455942779541,24.967964600372316,11.9455842779541,24.967964600372316,11.9455842779541C24.967964600372316,11.9455842779541,23.031964600372316,10.054410277954101,23.031964600372316,10.054410277954101C23.031964600372316,10.054410277954101,12.928004600372315,21.054394277954103,12.928004600372315,21.054394277954103C12.928004600372315,21.054394277954103,14.864004600372315,22.9455942779541,14.864004600372315,22.9455942779541C14.864004600372315,22.9455942779541,14.864004600372315,22.9455942779541,14.864004600372315,22.9455942779541Z" fill="#FFFFFF" fill-opacity="1"/></g></g></svg>