<svg xmlns="http://www.w3.org/2000/svg" xmlns:xlink="http://www.w3.org/1999/xlink" fill="none" version="1.1" width="19.99988555908203" height="19.99365234375" viewBox="0 0 19.99988555908203 19.99365234375"><g style="mix-blend-mode:passthrough"><path d="M13.916146594238281,0.793523C13.91104659423828,0.356046,13.55664659423828,0.00319162,13.11914659423828,0L6.854956594238281,0C6.417656594238281,0.0134321,6.071596594238281,0.374486,6.076716594238281,0.811963C6.081836594238281,1.24944,6.436256594238281,1.6023,6.873746594238281,1.60549L13.137946594238281,1.60549C13.575246594238282,1.59205,13.921346594238281,1.231,13.916146594238281,0.793523ZM19.99984659423828,3.55268C19.994746594238283,3.1152,19.64034659423828,2.76235,19.20284659423828,2.75916L0.7782925942382812,2.75916C0.34099259423828127,2.77259,-0.00506503576171875,3.13364,0.00005611123828125,3.57112C0.00517726423828125,4.0086,0.35959159423828124,4.36145,0.7970865942382812,4.36464L19.22164659423828,4.36464C19.65894659423828,4.35121,20.00494659423828,3.99016,19.99984659423828,3.55268ZM17.35214659423828,4.92923C17.57624659423828,4.93077,17.78944659423828,5.02631,17.939846594238283,5.19258C18.09014659423828,5.35885,18.163846594238283,5.58058,18.142846594238282,5.80375L18.141446594238282,5.81795L16.91524659423828,17.3463C16.76514659423828,18.8298,15.529646594238281,19.9669,14.038746594238281,19.9936L13.993846594238281,19.9936L6.291856594238281,19.975C4.8073965942382815,19.9645,3.563096594238281,18.8502,3.3895865942382812,17.3759L3.3843865942382814,17.3309L2.1497865942382814,5.81815C2.124586594238281,5.59523,2.1941865942382814,5.37197,2.3415965942382813,5.20286C2.4889965942382815,5.03374,2.7006665942382813,4.93431,2.9249365942382815,4.92883L17.35194659423828,4.92883L17.35214659423828,4.92923ZM7.934076594238281,8.39937C7.498366594238282,8.40185,7.1451165942382815,8.75323,7.140326594238282,9.18892L7.140326594238282,14.7176C7.141876594238282,15.1559,7.498496594238281,15.51,7.9368765942382815,15.5085C8.37524659423828,15.507,8.72936659423828,15.1503,8.72781659423828,14.712L8.72781659423828,9.18312C8.72011659423828,8.74958,8.367676594238281,8.40149,7.934076594238281,8.39917L7.934076594238281,8.39937ZM12.076246594238281,8.39937C11.64054659423828,8.40185,11.287346594238281,8.75323,11.282546594238282,9.18892L11.282546594238282,14.7176C11.284046594238282,15.1559,11.640746594238282,15.51,12.079046594238282,15.5085C12.517446594238281,15.507,12.871546594238282,15.1503,12.870046594238282,14.712L12.870046594238282,9.18312C12.86234659423828,8.74958,12.509846594238281,8.40149,12.076246594238281,8.39917L12.076246594238281,8.39937Z" fill-rule="evenodd" fill="#1C2023" fill-opacity="1"/></g></svg>