<svg xmlns="http://www.w3.org/2000/svg" xmlns:xlink="http://www.w3.org/1999/xlink" fill="none" version="1.1" width="35.03057861328125" height="37.41653823852539" viewBox="0 0 35.03057861328125 37.41653823852539"><g><path d="M21.2784,36.1944L16.3284,37.3868C15.5518,37.5738,14.8632,36.8478,15.0898,36.0822L16.489,31.3808C16.5374,31.2158,16.6276,31.064,16.7508,30.943L29.7286,17.9652C30.134,17.5604,30.7906,17.5604,31.196,17.9652L34.727,21.4962C35.1318,21.9016,35.1318,22.5582,34.727,22.9636L21.769,35.9216C21.6348,36.0558,21.4654,36.1504,21.2784,36.1944ZM25.7972,0L4.2944,0C1.9228,0,0,1.9228,0,4.2944L0,31.0266C0,33.3982,1.9228,35.321,4.2944,35.321L12.8414,35.321L14.5794,29.3458L30.0916,14.3528L30.0916,4.2944C30.0916,1.9228,28.1688,-2.09808e-7,25.7972,0ZM13.9964,24.827L7.81,24.827C6.6308,24.827,5.676,23.8722,5.676,22.693C5.676,21.5138,6.6308,20.559,7.81,20.559L13.9964,20.559C15.1756,20.559,16.1304,21.5138,16.1304,22.693C16.1304,23.8722,15.1756,24.827,13.9964,24.827ZM22.2838,17.7474L7.81,17.7474C6.6308,17.7474,5.676,16.7926,5.676,15.6134C5.676,14.4342,6.6308,13.4794,7.81,13.4794L22.2816,13.4794C23.4608,13.4794,24.4156,14.4342,24.4156,15.6134C24.4156,16.7926,23.4608,17.7474,22.2838,17.7474ZM22.2838,11.1716L7.81,11.1716C6.6308,11.1716,5.676,10.2168,5.676,9.0376C5.676,7.8584,6.6308,6.9036,7.81,6.9036L22.2816,6.9036C23.4608,6.9036,24.4156,7.8584,24.4156,9.0376C24.4156,10.2168,23.4608,11.1716,22.2838,11.1716Z" fill="#FC7032" fill-opacity="1"/></g></svg>